<?xml version="1.0" encoding="UTF-8"?>
<svg id="_Слой_1" data-name=" Слой 1" xmlns="http://www.w3.org/2000/svg" viewBox="0 0 261.26 246.51">
  <defs>
    <style>
      .cls-1 {
        fill: #c9bd50;
      }

      .cls-1, .cls-2 {
        stroke-width: 0px;
      }

      .cls-2 {
        fill: #96ca50;
      }
    </style>
  </defs>
  <path class="cls-1" d="m115.8,211.04v17.46c0,2.91-.69,5.65-1.93,8.07-.22.43-.87.33-.93-.15-.23-1.64-.7-3.24-1.43-4.82-.34-.75-1.23-1.08-1.97-.73-.75.36-1.08,1.24-.73,1.99,1.24,2.66,1.6,5.45,1.08,8.47-.06.37-.26.72-.55.96,0,0-.02.02-.03.03-1.02.85-2.6.15-2.61-1.18-.02-2.68-.61-5.24-1.76-7.74-.34-.75-1.24-1.06-1.99-.72s-1.08,1.23-.72,1.99c1.44,3.09,1.82,6.32,1.15,9.86-.13.69-.68,1.23-1.37,1.38h-.04c-1.15.25-2.21-.64-2.18-1.82.07-2.89-.51-5.64-1.75-8.3-.34-.75-1.24-1.08-1.99-.73s-1.06,1.24-.72,1.99c1.09,2.36,1.58,4.8,1.46,7.39-.05,1.07-1.03,1.88-2.08,1.69-8.48-1.52-14.77-9.19-14.77-18.07v-16.92c0-7.79,4.67-14.99,11.95-17.77.3-.1.61-.22.94-.33,3.74,8.35,11.42,14.35,22.98,17.98v.02h0Z"/>
  <path class="cls-1" d="m177.14,173.92c-1.29,6-3.28,12.76-5.97,20.48l-1.69,4.82c-1.56.54-2.89.99-3.53,1.23v28.05c0,2.6-.55,5.03-1.55,7.25-.21.47-.91.39-1-.12-.25-1.37-.69-2.71-1.29-4.02-.36-.75-1.24-1.08-1.99-.73-.75.36-1.08,1.24-.73,1.99,1.17,2.5,1.57,5.14,1.16,7.96-.05.38-.25.74-.53,1l-.03.03c-1.02.92-2.67.21-2.71-1.17-.07-2.52-.66-4.93-1.76-7.29-.34-.75-1.23-1.06-1.97-.72-.75.34-1.08,1.23-.73,1.99,1.41,3.05,1.81,6.26,1.18,9.74-.12.66-.62,1.22-1.27,1.39-.04,0-.07.02-.11.03-1.16.31-2.25-.65-2.23-1.85.05-2.84-.53-5.56-1.76-8.18-.34-.75-1.23-1.08-1.97-.73-.76.34-1.08,1.24-.73,1.99,1.05,2.27,1.54,4.62,1.47,7.11-.04,1.24-1.18,2.2-2.4,1.99-8.45-1.45-14.88-8.8-14.88-17.67v-24.18c-5.28-.93-10.04-2.57-14.29-4.79-7.96-4.13-14.05-10.23-17.94-17.34-6.9-.19-12.99,1.62-17.94,5.94-.27.24-.52.49-.79.73-4.8,4.61-7.33,11.09-7.33,17.73v21.47c0,3.32-.88,6.46-2.42,9.18-.25.45-.93.31-.99-.21-.19-1.86-.7-3.67-1.52-5.43-.34-.75-1.23-1.08-1.99-.73-.75.36-1.06,1.24-.72,1.99,1.3,2.82,1.63,5.8.96,9.04-.07.35-.27.67-.56.89-.04.03-.09.07-.13.1-1.01.76-2.41,0-2.38-1.26.06-2.86-.53-5.59-1.76-8.23-.34-.75-1.24-1.06-1.99-.72s-1.08,1.23-.73,1.99c1.45,3.13,1.83,6.42,1.14,10.01-.14.7-.69,1.27-1.39,1.41h-.03c-1.15.23-2.18-.73-2.15-1.9.09-2.92-.5-5.7-1.74-8.38-.34-.75-1.24-1.08-1.99-.73-.75.34-1.08,1.24-.73,1.99,1.16,2.52,1.63,5.14,1.42,7.93-.06.73-.76,1.27-1.48,1.14-8.36-1.51-14.68-8.84-14.68-17.64v-51.14c0-4.58.52-9.05,1.54-13.33-9.72-.72-18.54-4.74-25.33-11.76C1.56,141.28-2.65,124.28,1.68,109.98c3.16-10.41,10.44-18.3,20.44-22.32,2.64-6.4,9.36-10.67,16.9-9.65,7.09.96,12.77,6.83,13.53,13.95,1.02,9.55-6.42,17.6-15.75,17.6-4.59,0-8.74-1.96-11.64-5.09-4.55,2.83-6.7,6.9-7.72,10.28-2.62,8.62.09,19.34,6.58,26.06,3.79,3.92,10.25,7.96,20.29,6.66,9.93-16.32,27.74-27.3,48.15-27.68.37-.03.73-.03,1.11-.03h15.66c.76,4.22,1.93,8.6,3.49,13.18l8.02,23.43,3.41-19.31c1.93,10.44,6.57,20.71,13.88,30.7l13.2,18.04-1.69-22.28c-.13-1.8-.22-3.5-.28-5.15.31.79.64,1.59.99,2.38,1.89,6.39,2.45,13.26,1.68,20.44l-1.44,13.18,11.19-7.11c5.92-3.74,11.1-8.21,15.51-13.36l-.05.02Z"/>
  <path class="cls-1" d="m213.09,188.91v39.15c0,2.85-.64,5.57-1.8,8-.27.57-1.12.44-1.23-.19-.25-1.45-.7-2.87-1.34-4.27-.34-.75-1.24-1.08-1.99-.73-.75.36-1.08,1.24-.73,1.99,1.24,2.65,1.6,5.43,1.08,8.44-.06.37-.26.71-.54.95l-.03.03c-1.02.86-2.61.17-2.62-1.17-.02-2.66-.6-5.22-1.75-7.7-.36-.75-1.24-1.06-1.99-.72s-1.08,1.23-.73,1.99c1.44,3.09,1.82,6.33,1.15,9.88-.13.68-.65,1.24-1.32,1.41-.02,0-.04,0-.06.02-1.16.28-2.23-.69-2.2-1.88.07-2.88-.5-5.61-1.74-8.28-.36-.75-1.24-1.08-1.99-.73s-1.08,1.24-.73,1.99c1.04,2.25,1.53,4.56,1.48,7.02-.03,1.27-1.25,2.23-2.5,1.97-8.15-1.69-14.25-8.9-14.25-17.56v-25.34l1.75-.52c12-3.56,23.71-7.79,34.1-13.72l-.02-.03h0Z"/>
  <path class="cls-2" d="m248.41,84.4c15.81-11.32,15.23-24.81,4.51-39.65,1.92,21.67-7.2,28.09-16.64,27.99,21.87-20.63,5.39-53.7-23.64-41.05C205.02-.65,168.21-9.04,139.25,10.23c18.77-.23,32.71,2.8,32.97,15.08-25.19-27.83-69.25,7.93-48.72,39.44h-.01c-16.17-1.03-26.33,17.01-25.29,40.96,6.11-9.37,13.24-16.41,21.77-20.21-7.86,14.94-6.47,30.12-1.24,45.4,2.26-12.79,6.77-22.63,15.08-27.52-8.16,21.3-4.7,41.48,9.33,60.64-1.14-14.98.13-27.75,5.75-36.54.64,10.94,3.03,21.32,7.31,31.1,2.3,7.53,2.9,15.32,2.02,23.32,11.97-7.58,20.89-18.43,26.12-33.28,2.98,13.51-.95,30.18-7.15,47.89,35.64-10.56,66.96-26.02,67.64-76.04,5.2,6.42,7.39,16.2,8.09,27.68,9.19-18.75,14.53-38.39-4.51-63.75Zm-16.47,27.93c-6.56,17.8-25.91,27.37-44.25,22.53-19.45-5.13-28.31-25.46-23.57-46.05-40.22-19.28,1.04-68.21,25.19-38.77,17.31-22.18,45.92,1.45,34.52,25.19,11.02,12.03,12.29,25.75,8.11,37.1Z"/>
  <circle class="cls-1" cx="175.49" cy="63.91" r="5.95"/>
  <circle class="cls-1" cx="211.07" cy="63.91" r="5.95"/>
  <path class="cls-1" d="m194.33,77.51h20.25c1.55,0,3.03.81,3.73,2.19,2.31,4.57-4.58,10.51-10.33,10.77-.92,12.21,4.34,16.45,13.58,15.55-3.48,27.28-43.64,29.13-47.06-3.32,15.02,7.91,28.4,3.42,26.43-11.82-7.12-.99-13.76-7.63-10.24-11.77.9-1.06,2.26-1.6,3.65-1.6h0Z"/>
  <path class="cls-1" d="m184.24,98.71c-.21,0-.43-.03-.64-.09l-7.26-1.97c-1.3-.35-2.07-1.69-1.71-2.99.35-1.3,1.69-2.06,2.99-1.71l7.26,1.97c1.3.35,2.07,1.69,1.71,2.99-.29,1.08-1.28,1.8-2.35,1.8Z"/>
  <path class="cls-1" d="m185.79,90.91c-.45,0-.91-.13-1.32-.39l-5.56-3.6c-1.13-.73-1.45-2.24-.72-3.37.73-1.13,2.24-1.45,3.37-.72l5.56,3.6c1.13.73,1.45,2.24.72,3.37-.47.72-1.25,1.11-2.05,1.11h0Z"/>
  <path class="cls-1" d="m223.97,98.89c-.96,0-1.87-.57-2.26-1.52-.51-1.25.1-2.67,1.34-3.17l3.39-1.37c1.25-.5,2.67.1,3.17,1.34.51,1.25-.1,2.67-1.34,3.17l-3.39,1.37c-.3.12-.61.18-.91.18Z"/>
  <path class="cls-1" d="m221.92,91.19c-.58,0-1.16-.2-1.62-.62-1-.9-1.09-2.44-.19-3.44l2.45-2.74c.9-1,2.44-1.09,3.44-.19,1,.9,1.09,2.44.19,3.44l-2.45,2.74c-.48.54-1.15.81-1.82.81Z"/>
</svg>