<?xml version="1.0" encoding="UTF-8" standalone="no"?>
<!-- Created with Inkscape (http://www.inkscape.org/) -->
<svg xmlns:dc="http://purl.org/dc/elements/1.1/" xmlns:cc="http://creativecommons.org/ns#" xmlns:rdf="http://www.w3.org/1999/02/22-rdf-syntax-ns#" xmlns:svg="http://www.w3.org/2000/svg" xmlns="http://www.w3.org/2000/svg" xmlns:sodipodi="http://sodipodi.sourceforge.net/DTD/sodipodi-0.dtd" xmlns:inkscape="http://www.inkscape.org/namespaces/inkscape" width="160" height="160" viewBox="0 0 160 160.00001" id="svg2" version="1.1">
  <defs id="defs4"/>
  
  <metadata id="metadata7">
    
  </metadata>
  <g id="layer1" transform="translate(0,-892.3622)">
    <rect style="fill:#322e49;fill-opacity:1;stroke:#22b0b0;stroke-width:0;stroke-linecap:square;stroke-miterlimit:4;stroke-dasharray:none;stroke-opacity:1" id="rect4184" width="160" height="160" x="-7.6293954e-06" y="892.36218"/>
    <path style="fill:#22b0b0;fill-opacity:1;stroke:#22b0b0;stroke-width:0;stroke-linecap:square;stroke-miterlimit:4;stroke-dasharray:none;stroke-opacity:1" d="M 16.044922 16.044922 L 16.044922 70.863281 L 34.318359 70.863281 L 107.41016 70.863281 L 107.41016 52.589844 L 34.318359 52.589844 L 34.318359 16.044922 L 16.044922 16.044922 z " transform="translate(-7.6293954e-6,892.3622)" id="rect4167"/>
    <path style="fill:#22b0b0;fill-opacity:1;stroke:#22b0b0;stroke-width:0;stroke-linecap:square;stroke-miterlimit:4;stroke-dasharray:none;stroke-opacity:1" d="M 52.589844 16.044922 L 52.589844 34.318359 L 125.68164 34.318359 L 125.68164 125.68164 L 52.589844 125.68164 L 52.589844 143.95508 L 125.68164 143.95508 L 143.95508 143.95508 L 143.95508 34.318359 L 143.95508 16.044922 L 52.589844 16.044922 z " transform="translate(-7.6293954e-6,892.3622)" id="rect4171"/>
    <path style="fill:#22b0b0;fill-opacity:1;stroke:#22b0b0;stroke-width:0;stroke-linecap:square;stroke-miterlimit:4;stroke-dasharray:none;stroke-opacity:1" d="M 16.044922 89.136719 L 16.044922 143.95508 L 34.318359 143.95508 L 34.318359 107.41016 L 107.41016 107.41016 L 107.41016 89.136719 L 34.318359 89.136719 L 16.044922 89.136719 z " transform="translate(-7.6293954e-6,892.3622)" id="rect4175"/>
  </g>
</svg>
