<?xml version="1.0" encoding="UTF-8" standalone="no"?>
<!-- Created with Inkscape (http://www.inkscape.org/) -->

<svg
   xmlns:dc="http://purl.org/dc/elements/1.1/"
   xmlns:cc="http://creativecommons.org/ns#"
   xmlns:rdf="http://www.w3.org/1999/02/22-rdf-syntax-ns#"
   xmlns:svg="http://www.w3.org/2000/svg"
   xmlns="http://www.w3.org/2000/svg"
   xmlns:xlink="http://www.w3.org/1999/xlink"
   xmlns:sodipodi="http://sodipodi.sourceforge.net/DTD/sodipodi-0.dtd"
   xmlns:inkscape="http://www.inkscape.org/namespaces/inkscape"
   id="svg3437"
   version="1.1"
   inkscape:version="0.91 r13725"
   width="188.19887"
   height="182.27876"
   xml:space="preserve"
   sodipodi:docname="helenos.svg"><metadata
     id="metadata3443"><rdf:RDF><cc:Work
         rdf:about=""><dc:format>image/svg+xml</dc:format><dc:type
           rdf:resource="http://purl.org/dc/dcmitype/StillImage" /><dc:title></dc:title></cc:Work></rdf:RDF></metadata><defs
     id="defs3441"><linearGradient
       id="linearGradient7224"
       inkscape:collect="always"><stop
         id="stop7226"
         offset="0"
         style="stop-color:#f4f7f9;stop-opacity:1" /><stop
         id="stop7228"
         offset="1"
         style="stop-color:#cad0d4;stop-opacity:1" /></linearGradient><linearGradient
       id="linearGradient7208"><stop
         style="stop-color:#ebeef1;stop-opacity:1;"
         offset="0"
         id="stop7210" /><stop
         style="stop-color:#cad0d4;stop-opacity:1"
         offset="1"
         id="stop7212" /></linearGradient><clipPath
       clipPathUnits="userSpaceOnUse"
       id="clipPath3475"><path
         d="m 816.738,689.309 c -41.34,0 -80.386,25.441 -96.019,66.679 L 477.898,1395.8 c -4.722,12.45 -6.89,25.24 -6.765,37.79 0.418,40.99 25.34,79.39 65.719,94.69 l 635.128,241.02 c 11.89,4.52 24.1,6.66 36.11,6.66 41.36,0 80.39,-25.4 96.01,-66.69 l 242.82,-639.72 c 4.72,-12.46 6.89,-25.27 6.76,-37.84 -0.41,-41.026 -25.35,-79.433 -65.8,-94.73 L 852.75,695.961 c -11.848,-4.512 -24.031,-6.652 -36.012,-6.652"
         id="path3477"
         inkscape:connector-curvature="0" /></clipPath><linearGradient
       x1="0"
       y1="0"
       x2="1"
       y2="0"
       gradientUnits="userSpaceOnUse"
       gradientTransform="matrix(39.659,-85.0491,-85.0491,-39.659,81.4102,165.789)"
       spreadMethod="pad"
       id="linearGradient3479"><stop
         style="stop-opacity:1;stop-color:#ffffff"
         offset="0"
         id="stop3481" /><stop
         style="stop-opacity:1;stop-color:#cac9ca"
         offset="1"
         id="stop3483" /></linearGradient><filter
       id="filter4590"
       inkscape:label="Inner Shadow"
       inkscape:menu="Shadows and Glows"
       inkscape:menu-tooltip="Adds a colorizable drop shadow inside"
       style="color-interpolation-filters:sRGB"><feGaussianBlur
         id="feGaussianBlur4592"
         stdDeviation="4"
         result="result8" /><feOffset
         id="feOffset4594"
         dx="4"
         dy="4"
         result="result11" /><feComposite
         id="feComposite4596"
         in2="result11"
         result="result6"
         in="SourceGraphic"
         operator="in" /><feFlood
         id="feFlood4598"
         result="result10"
         in="result6"
         flood-opacity="1"
         flood-color="rgb(76,76,76)" /><feBlend
         id="feBlend4600"
         in2="result10"
         mode="normal"
         in="result6"
         result="result12" /><feComposite
         id="feComposite4602"
         in2="SourceGraphic"
         result="result2"
         operator="in" /></filter><filter
       id="filter4738"
       style="color-interpolation-filters:sRGB"
       inkscape:label="Drop Shadow"><feFlood
         id="feFlood4740"
         flood-opacity="0.8909657320872274"
         flood-color="rgb(0,0,0)"
         result="flood" /><feComposite
         id="feComposite4742"
         in2="SourceGraphic"
         in="flood"
         operator="in"
         result="composite1" /><feGaussianBlur
         id="feGaussianBlur4744"
         stdDeviation="2.5738461538461532"
         result="blur" /><feOffset
         id="feOffset4746"
         dx="0"
         dy="2"
         result="offset" /><feComposite
         id="feComposite4748"
         in2="offset"
         in="SourceGraphic"
         operator="over"
         result="composite2" /></filter><filter
       id="filter4768"
       inkscape:label="Drop Shadow"
       inkscape:menu="Shadows and Glows"
       inkscape:menu-tooltip="Adds a colorizable drop shadow inside"
       style="color-interpolation-filters:sRGB"><feGaussianBlur
         id="feGaussianBlur4770"
         stdDeviation="1"
         result="result8" /><feOffset
         id="feOffset4772"
         dx="1"
         dy="1"
         result="result11" /><feComposite
         id="feComposite4774"
         in2="result11"
         result="result6"
         in="SourceGraphic"
         operator="in" /><feFlood
         id="feFlood4776"
         result="result10"
         in="result6"
         flood-opacity="1"
         flood-color="rgb(60,62,63)" /><feBlend
         id="feBlend4778"
         in2="result10"
         mode="normal"
         in="result6"
         result="result12" /><feComposite
         id="feComposite4780"
         in2="SourceGraphic"
         result="fbSourceGraphic"
         operator="in" /><feColorMatrix
         result="fbSourceGraphicAlpha"
         in="fbSourceGraphic"
         values="0 0 0 -1 0 0 0 0 -1 0 0 0 0 -1 0 0 0 0 1 0"
         id="feColorMatrix4924" /><feFlood
         id="feFlood4926"
         flood-opacity="0.90537634408602152"
         flood-color="rgb(255,255,255)"
         result="flood"
         in="fbSourceGraphic" /><feComposite
         id="feComposite4928"
         in2="fbSourceGraphic"
         in="flood"
         operator="in"
         result="composite1" /><feGaussianBlur
         id="feGaussianBlur4930"
         stdDeviation="0.24978417266187047"
         result="blur" /><feOffset
         id="feOffset4932"
         dx="1"
         dy="1"
         result="offset" /><feComposite
         id="feComposite4934"
         in2="offset"
         in="fbSourceGraphic"
         operator="over"
         result="composite2" /></filter><linearGradient
       inkscape:collect="always"
       xlink:href="#linearGradient7208"
       id="linearGradient7214"
       x1="104.32044"
       y1="18.753582"
       x2="150.06894"
       y2="128.61929"
       gradientUnits="userSpaceOnUse" /><linearGradient
       inkscape:collect="always"
       xlink:href="#linearGradient7224"
       id="linearGradient7222"
       x1="108.13281"
       y1="25.685173"
       x2="146.25656"
       y2="122.38086"
       gradientUnits="userSpaceOnUse" /></defs><sodipodi:namedview
     pagecolor="#ffffff"
     bordercolor="#666666"
     borderopacity="1"
     objecttolerance="10"
     gridtolerance="10"
     guidetolerance="10"
     inkscape:pageopacity="0"
     inkscape:pageshadow="2"
     inkscape:window-width="1366"
     inkscape:window-height="712"
     id="namedview3439"
     showgrid="false"
     inkscape:zoom="2.2250971"
     inkscape:cx="113.13319"
     inkscape:cy="88.528182"
     inkscape:window-x="0"
     inkscape:window-y="27"
     inkscape:window-maximized="1"
     inkscape:current-layer="layer2"
     showguides="true"
     inkscape:guide-bbox="true"
     showborder="false"
     fit-margin-top="0"
     fit-margin-left="0"
     fit-margin-right="0"
     fit-margin-bottom="0" /><g
     inkscape:groupmode="layer"
     id="layer2"
     inkscape:label="Logo"
     style="display:inline"
     sodipodi:insensitive="true"
     transform="translate(-33.164048,13.182987)"><g
       id="g4604"
       style="filter:url(#filter4738)"><g
         id="g7230"><path
           sodipodi:nodetypes="sssssssss"
           inkscape:connector-curvature="0"
           id="path5035"
           d="M 144.06902,10.045066 61.198812,38.278932 C 53.834625,40.787909 45.731809,50.10879 50.057881,60.713409 L 84.548982,145.2624 c 2.357198,5.77826 9.755299,11.05606 19.840018,7.47815 l 92.48498,-32.81233 c 4.92096,-1.74588 11.69893,-8.51248 7.47816,-18.46647 L 167.72442,15.081378 c -3.72435,-8.7832514 -14.95083,-8.0019572 -23.6554,-5.036312 z"
           style="fill:#4f5051;fill-opacity:1;stroke:none" /><rect
           y="48.708691"
           x="48.849281"
           height="6.2556591"
           width="6.8167043"
           id="rect5037"
           style="fill:#4f5051;fill-opacity:1;stroke:none" /><rect
           y="101.55563"
           x="199.60468"
           height="5.889843"
           width="6.0749969"
           id="rect5039"
           style="fill:#4f5051;fill-opacity:1;stroke:none" /></g><path
         sodipodi:nodetypes="sssssssss"
         inkscape:connector-curvature="0"
         id="path4485"
         d="M 144.06902,4.0450664 61.198812,32.278932 C 53.834625,34.787909 45.731809,44.10879 50.057881,54.713409 L 84.548982,139.2624 c 2.357198,5.77826 9.755299,11.05606 19.840018,7.47815 l 92.48498,-32.81233 c 4.92096,-1.74588 11.69893,-8.51248 7.47816,-18.466475 L 167.72442,9.0813775 C 164.00007,0.29812656 152.77359,1.0794208 144.06902,4.0450664 Z"
         style="fill:url(#linearGradient7214);fill-opacity:1;stroke:none" /><path
         sodipodi:type="inkscape:offset"
         inkscape:radius="-6.7012396"
         inkscape:original="M 157.75 2.15625 C 153.38977 1.6243729 148.41478 2.5484272 144.0625 4.03125 L 61.1875 32.28125 C 53.823313 34.790227 45.736428 44.114131 50.0625 54.71875 L 84.5625 139.25 C 86.919698 145.02826 94.290281 150.32791 104.375 146.75 L 196.875 113.9375 C 201.79596 112.19162 208.56452 105.42275 204.34375 95.46875 L 167.71875 9.09375 C 165.85657 4.7021245 162.11023 2.6881271 157.75 2.15625 z "
         style="fill:url(#linearGradient7222);fill-opacity:1;stroke:none"
         id="path7206"
         d="M 156.93945,8.8085938 C 154.11344,8.4638656 149.90379,9.1208377 146.22266,10.375 l -82.873051,28.25 a 6.7019097,6.7019097 0 0 1 -0.002,0 c -1.992244,0.678757 -4.855632,2.798025 -6.373047,5.306641 -1.517415,2.508615 -2.059,4.941741 -0.707031,8.255859 l 34.5,84.53125 c 1.053105,2.5815 4.21739,6.25149 11.367192,3.71484 l 92.5,-32.8125 c 0.80096,-0.28416 2.6954,-1.58884 3.5664,-3.13281 0.871,-1.54396 1.36733,-3.11519 -0.0273,-6.404296 l -36.625,-86.375 c -0.8886,-2.0956064 -1.8095,-2.5588506 -4.60938,-2.9003902 z" /><g
         style="filter:url(#filter4590)"
         id="g4542"><path
           inkscape:connector-curvature="0"
           id="path4473"
           d="m 135.03125,34.78125 a 6.750675,6.750675 0 0 0 -6.21875,9.375 l 6.4375,15.9375 -23.78125,9.5625 L 105.03125,53.75 A 6.750675,6.750675 0 0 0 98.75,49.4375 6.750675,6.750675 0 0 0 92.53125,58.8125 L 110,102.03125 a 6.7576093,6.7576093 0 1 0 12.53125,-5.0625 l -6.5625,-16.1875 23.78125,-9.5625 6.53125,16.15625 a 6.7576093,6.7576093 0 1 0 12.53125,-5.0625 l -17.5,-43.21875 a 6.750675,6.750675 0 0 0 -6.28125,-4.3125 z"
           style="color:#000000;font-style:normal;font-variant:normal;font-weight:normal;font-stretch:normal;font-size:medium;line-height:normal;font-family:Sans;-inkscape-font-specification:Sans;text-indent:0;text-align:start;text-decoration:none;text-decoration-line:none;letter-spacing:normal;word-spacing:normal;text-transform:none;direction:ltr;block-progression:tb;writing-mode:lr-tb;baseline-shift:baseline;text-anchor:start;display:inline;overflow:visible;visibility:visible;fill:#c3c2c4;fill-opacity:1;stroke:none;stroke-width:13.5;marker:none;enable-background:accumulate" /></g><g
         id="g4750"
         style="filter:url(#filter4768)"><ellipse
           style="fill:#c3c2c4;fill-opacity:1;stroke:none"
           id="path4479"
           transform="matrix(0.98880313,-0.44393908,0.44393908,0.98880313,-54.312475,46.576269)"
           cx="102.06332"
           cy="125.22211"
           rx="3.25734"
           ry="3.1216176" /><ellipse
           transform="matrix(0.98880313,-0.44393908,0.44393908,0.98880313,27.39247,17.938822)"
           id="path4481"
           style="fill:#c3c2c4;fill-opacity:1;stroke:none"
           cx="102.06332"
           cy="125.22211"
           rx="3.25734"
           ry="3.1216176" /></g><path
         style="fill:#4d4d4d;fill-opacity:1;stroke:none"
         d="m 155.84375,8.53125 c -2.7841,-0.086304 -6.45076,0.5847419 -9.6875,1.6875 l -82.875,28.25 c -2.037566,0.694198 -4.927624,2.827186 -6.46875,5.375 -1.541126,2.547814 -2.092472,5.038809 -0.71875,8.40625 l 34.5,84.53125 c 0.443193,1.08641 1.273856,2.34335 2.5625,3.28125 -0.970342,-0.86582 -1.626075,-1.89589 -2,-2.8125 l -34.5,-84.53125 C 55.28948,49.368352 55.840427,46.91198 57.375,44.375 c 1.530152,-2.529672 4.421979,-4.657063 6.4375,-5.34375 l 82.875,-28.25 c 2.76829,-0.9431583 5.83842,-1.5525003 8.40625,-1.65625 0.85594,-0.034583 1.66293,-0.024361 2.375,0.0625 1.41789,0.1729592 2.35949,0.444633 2.89232,0.8024892 0.1708,0.1147148 0.5204,0.2465578 0.67018,0.3850108 -0.80331,-1.1222334 -1.88419,-1.4842817 -4.0625,-1.75 -0.3584,-0.043718 -0.72727,-0.081421 -1.125,-0.09375 z"
         id="path5113"
         inkscape:connector-curvature="0"
         sodipodi:nodetypes="sccscccccsccssscss" /><path
         style="fill:#4d4d4d;fill-opacity:1;stroke:none"
         d="m 158.375,8.84375 c 0.4119,0.085094 0.77418,0.1866234 1.09375,0.3125 -0.3182,-0.1277152 -0.68149,-0.2278629 -1.09375,-0.3125 z m -8.34375,0.3125 c -0.52306,0.1108753 -1.04032,0.2382306 -1.5625,0.375 0.51786,-0.1361952 1.04381,-0.264064 1.5625,-0.375 z m 10.01745,0.6962932 c 0.32528,0.2630278 0.36217,0.4773388 0.5138,0.8349568 l 36.625,86.375 c 0.70023,1.651396 0.93765,2.884086 0.875,3.875 -0.0626,0.99073 -0.43213,1.74619 -0.875,2.53125 -0.43241,0.76651 -1.09694,1.47237 -1.78125,2.03125 -0.68401,0.55863 -1.39617,0.98837 -1.78125,1.125 l -92.5,32.8125 c -3.582155,1.2709 -6.124046,0.97982 -7.9375,0.0625 -0.396515,-0.20058 -0.950398,-0.67555 -1.276291,-1.09315 -0.325894,-0.4176 -0.30025,-0.45646 -0.799278,-1.15258 0.328593,0.8104 0.876055,1.6176 1.489631,2.26917 0.330647,0.25808 0.621581,0.36703 1.023438,0.57031 1.841002,0.93126 4.429643,1.2153 8.03125,-0.0625 l 92.5,-32.8125 c 0.40826,-0.14485 1.1207,-0.56001 1.8125,-1.125 0.6918,-0.56499 1.37094,-1.27978 1.8125,-2.0625 0.44554,-0.78978 0.81102,-1.58146 0.875,-2.59375 0.064,-1.01229 -0.17077,-2.245431 -0.875,-3.90625 l -36.625,-86.375 c -0.20218,-0.476821 -0.20571,-0.799924 -0.43359,-1.121094 -0.008,-0.0048 -0.1992,-0.1554565 -0.207,-0.160156 -0.12453,-0.07439 -0.59028,-0.1518513 -0.73061,-0.2146941 z"
         id="path5135"
         inkscape:connector-curvature="0"
         sodipodi:nodetypes="ccccccccscssccczccsccsscsscccc" /><path
         style="fill:#f9f9f9;fill-opacity:1;stroke:none"
         d="m 160.66086,9.9356565 c 0.29941,0.4813045 0.18296,0.5641445 0.49539,1.3009705 l 36.625,86.375 c 0.70423,1.660819 0.93898,2.893963 0.875,3.906253 -0.064,1.01229 -0.42946,1.80397 -0.875,2.59375 -0.44156,0.78272 -1.1207,1.49751 -1.8125,2.0625 -0.6918,0.56499 -1.40424,0.98015 -1.8125,1.125 l -92.5,32.8125 c -3.601607,1.2778 -6.214641,1.04049 -8.03125,0.0625 -0.901764,-0.48547 -1.55545,-1.09494 -2.128906,-1.77734 1.601388,2.27579 4.81824,4.36105 10.691406,2.27734 l 92.5,-32.8125 c 0.84547,-0.29996 2.76088,-1.63159 3.65625,-3.21875 0.89537,-1.58716 1.41689,-3.2294 0,-6.562503 L 161.59766,11.638971 c -0.44229,-1.040443 -0.41497,-1.174048 -0.9368,-1.7033145 z"
         id="path5120"
         inkscape:connector-curvature="0"
         sodipodi:nodetypes="csscssccscccsssc" /><path
         style="fill:#323232;fill-opacity:1;stroke:none"
         d="m 78.322398,125.81023 5.729153,-7.0905 L 60.890826,62.330641 52.859,63.151994 Z"
         id="path4487"
         inkscape:connector-curvature="0"
         sodipodi:nodetypes="ccccc" /><path
         sodipodi:nodetypes="ccccc"
         inkscape:connector-curvature="0"
         id="path4519"
         d="m 79.019887,125.55253 5.440835,-5.59341 -0.48766,-1.41355 -5.651067,7.26442 z"
         style="fill:#f9f9f9;stroke:none" /><path
         style="fill:#f9f9f9;fill-opacity:1;stroke:none"
         d="m 156.34375,9.09375 c -0.39775,-0.00909 -0.82203,0.013958 -1.25,0.03125 -2.56783,0.1037497 -5.63796,0.7130915 -8.40625,1.65625 l -82.875,28.25 c -2.015521,0.686687 -4.907348,2.814078 -6.4375,5.34375 -1.534573,2.53698 -2.08552,4.993352 -0.71875,8.34375 l 34.5,84.53125 c 0.280444,0.68746 1.163727,1.70758 1.329926,1.86437 0.166199,0.15679 0.344629,0.25227 1.076271,0.55429 -0.464587,-0.22276 -0.384832,-0.17168 -0.636666,-0.39913 -0.251834,-0.22745 -0.493954,-1.1277 -0.769531,-1.73823 L 57.65625,53 c -1.312012,-3.216169 -0.796136,-5.39098 0.6875,-7.84375 1.442449,-2.38468 4.316055,-4.466796 6.15625,-5.09375 l 82.875,-28.25 c 2.71949,-0.926532 5.75094,-1.555279 8.25,-1.65625 0.83773,-0.03385 1.48163,-0.112435 2.15419,-0.09388 1.29552,0.03574 2.14895,0.0066 2.38837,0.249611 0.23943,0.24297 0.49431,0.59618 0.49431,0.59618 0,0 -0.29527,-0.741854 -0.48319,-0.9422587 -0.18792,-0.200405 -0.2281,-0.2086143 -0.54154,-0.3339453 -0.31344,-0.1253311 -0.76625,-0.2734176 -2.16839,-0.444455 -0.35604,-0.04343 -0.72725,-0.08466 -1.125,-0.093752 z m -6.3125,0.0625 c -0.52306,0.1108753 -1.04032,0.2382306 -1.5625,0.375 0.51786,-0.1361952 1.04381,-0.264064 1.5625,-0.375 z"
         id="path5142"
         inkscape:connector-curvature="0"
         sodipodi:nodetypes="ssccscczczccsccsszczzssccc" /><path
         sodipodi:nodetypes="ccccc"
         inkscape:connector-curvature="0"
         id="path4521"
         d="m 59.978424,61.811457 -7.052525,-0.01903 -0.06697,1.359774 7.75195,-0.769753 z"
         style="fill:#000000;stroke:none" /></g></g></svg>